                                                                        S      1
,,18HPanel_Front_Button,18HPanel_Front_Button,7Hunknown,7Hunknown,32,38,G      1
7,99,15,,1.,2,2HMM,1,0.08,15H20160402.165106,0.01,10000.,7Hunknown,7HunkG      2
nown,11,0,;                                                             G      3
     186       1                                                00000000D      1
     186             -57       1       0                               0D      2
     514       2                                                00010000D      3
     514                       1       1                               0D      4
     510       3                                                00010000D      5
     510             -57       1       1                               0D      6
     510       4                                                00010000D      7
     510             -57       1       1                               0D      8
     510       5                                                00010000D      9
     510             -57       1       1                               0D     10
     510       6                                                00010000D     11
     510             -57       1       1                               0D     12
     510       7                                                00010000D     13
     510             -57       1       1                               0D     14
     508       8                                                00010000D     15
     508                       1       1                               0D     16
     508       9                                                00010000D     17
     508                       1       1                               0D     18
     508      10                                                00010000D     19
     508                       1       1                               0D     20
     508      11                                                00010000D     21
     508                       1       1                               0D     22
     508      12                                                00010000D     23
     508                       1       1                               0D     24
     508      13                                                00010000D     25
     508                       1       1                               0D     26
     126      14                                                00010000D     27
     126       0              16       0                               0D     28
     126      30                                                00010000D     29
     126       0              15       0                               0D     30
     126      45                                                00010000D     31
     126       0              16       0                               0D     32
     126      61                                                00010000D     33
     126       0               5       0                               0D     34
     126      66                                                00010000D     35
     126       0               5       0                               0D     36
     126      71                                                00010000D     37
     126       0              10       0                               0D     38
     126      81                                                00010000D     39
     126       0              10       0                               0D     40
     128      91                                                00010000D     41
     128       0     -57       6       0                               0D     42
     128      97                                                00010000D     43
     128       0     -57      27       0                               0D     44
     128     124                                                00010000D     45
     128       0     -57       9       0                               0D     46
     128     133                                                00010000D     47
     128       0     -57      27       0                               0D     48
     128     160                                                00010000D     49
     128       0     -57       8       0                               0D     50
     502     168                                                00010000D     51
     502                       5       1                               0D     52
     504     173                                                00010001D     53
     504                       2       1                               0D     54
     406     175                                                00000000D     55
     406                       1      15                               0D     56
     314     176                                                00000200D     57
     314                       2       0                               0D     58
     314     178                                                00000200D     59
     314                       2       0                               0D     60
186,3,1,0,0,1,55;                                                      1P      1
514,5,5,1,7,1,9,1,11,1,13,1;                                           3P      2
510,41,2,1,15,17;                                                      5P      3
510,43,1,1,19;                                                         7P      4
510,45,1,1,21;                                                         9P      5
510,47,1,1,23;                                                        11P      6
510,49,1,1,25;                                                        13P      7
508,1,0,53,1,1,0;                                                     15P      8
508,1,0,53,2,0,0;                                                     17P      9
508,4,0,53,3,0,0,0,53,4,1,0,0,53,1,0,0,0,53,4,0,0;                    19P     10
508,1,0,53,3,1,0;                                                     21P     11
508,5,0,53,2,1,0,0,53,5,1,0,0,53,6,0,0,0,53,7,0,0,0,53,5,0,0;         23P     12
508,2,0,53,6,1,0,0,53,7,1,0;                                          25P     13
126,8,2,0,1,0,0,-3.14159265358979,-3.14159265358979,                  27P     14
-3.14159265358979,-1.5707963267949,-1.5707963267949,                  27P     15
-4.44089209850063D-16,-4.44089209850063D-16,1.5707963267949,          27P     16
1.5707963267949,3.14159265358979,3.14159265358979,                    27P     17
3.14159265358979,1.,0.707106781186557,1.,0.707106781186556,1.,        27P     18
0.707106781186557,1.,0.707106781186534,1.,-91.795250254578,           27P     19
35.119549276899,37.5967893045237,-91.795250254578,                    27P     20
37.1980102459817,38.7967893045236,-89.395250254578,                   27P     21
37.1980102459817,38.7967893045236,-86.995250254578,                   27P     22
37.1980102459817,38.7967893045236,-86.995250254578,                   27P     23
35.119549276899,37.5967893045237,-86.995250254578,                    27P     24
33.0410883078164,36.3967893045237,-89.395250254578,                   27P     25
33.0410883078164,36.3967893045237,-91.795250254578,                   27P     26
33.0410883078164,36.3967893045237,-91.795250254578,                   27P     27
35.119549276899,37.5967893045237,-3.14159265358979,                   27P     28
3.14159265358979,0.,0.,0.;                                            27P     29
126,8,2,0,1,0,0,-3.1415926535898,-3.1415926535898,                    29P     30
-3.1415926535898,-1.5707963267949,-1.5707963267949,                   29P     31
-5.32907051820075D-15,-5.32907051820075D-15,1.57079632679489,         29P     32
1.57079632679489,3.14159265358979,3.14159265358979,                   29P     33
3.14159265358979,1.,0.70710678118654,1.,0.70710678118654,1.,          29P     34
0.70710678118654,1.,0.70710678118654,1.,-89.395250254578,             29P     35
36.288683572008,38.2717893045236,-88.045250254578,                    29P     36
36.288683572008,38.2717893045236,-88.045250254578,                    29P     37
35.119549276899,37.5967893045237,-88.045250254578,                    29P     38
33.95041498179,36.9217893045237,-89.395250254578,33.95041498179,      29P     39
36.9217893045237,-90.745250254578,33.95041498179,                     29P     40
36.9217893045237,-90.745250254578,35.119549276899,                    29P     41
37.5967893045237,-90.745250254578,36.288683572008,                    29P     42
38.2717893045236,-89.395250254578,36.288683572008,                    29P     43
38.2717893045236,-3.1415926535898,3.14159265358979,0.,0.,0.;          29P     44
126,8,2,0,1,0,0,-3.14159265358979,-3.14159265358979,                  31P     45
-3.14159265358979,-1.5707963267949,-1.5707963267949,                  31P     46
2.22044604925031D-16,2.22044604925031D-16,1.5707963267949,            31P     47
1.5707963267949,3.14159265358979,3.14159265358979,                    31P     48
3.14159265358979,1.,0.707106781186557,1.,0.707106781186558,1.,        31P     49
0.707106781186554,1.,0.70710678118655,1.,-91.795250254578,            31P     50
33.5545492768991,40.307448818369,-91.795250254578,                    31P     51
31.4760883078164,39.107448818369,-89.395250254578,                    31P     52
31.4760883078164,39.107448818369,-86.995250254578,                    31P     53
31.4760883078164,39.107448818369,-86.995250254578,                    31P     54
33.5545492768991,40.307448818369,-86.995250254578,                    31P     55
35.6330102459818,41.507448818369,-89.395250254578,                    31P     56
35.6330102459818,41.507448818369,-91.795250254578,                    31P     57
35.6330102459818,41.507448818369,-91.795250254578,                    31P     58
33.5545492768991,40.307448818369,-3.14159265358979,                   31P     59
3.14159265358979,0.,0.,0.;                                            31P     60
126,1,1,0,0,1,0,-1.38421052631579,-1.38421052631579,                  33P     61
0.263157894736847,0.263157894736847,1.,1.,-91.795250254578,           33P     62
33.5545492768991,40.307448818369,-91.795250254578,                    33P     63
35.119549276899,37.5967893045237,-1.38421052631579,                   33P     64
0.263157894736847,0.,0.,0.;                                           33P     65
126,1,1,0,0,1,0,-3.47037037037037,-3.47037037037037,                  35P     66
7.82592592592593,7.82592592592593,1.,1.,-89.395250254578,             35P     67
36.288683572008,38.2717893045236,-89.395250254578,                    35P     68
43.9136835720078,25.0649018968108,-3.47037037037037,                  35P     69
7.82592592592593,0.,0.,0.;                                            35P     70
126,4,2,0,0,0,0,7.72326413314377D-15,7.72326413314377D-15,            37P     71
7.72326413314377D-15,1.5707963267949,1.5707963267949,                 37P     72
3.14159265358979,3.14159265358979,3.14159265358979,1.,                37P     73
0.707106781186586,1.,0.70710678118655,1.,-89.395250254578,            37P     74
41.5754149817898,23.7149018968109,-90.745250254578,                   37P     75
41.5754149817898,23.7149018968109,-90.745250254578,                   37P     76
42.7445492768988,24.3899018968108,-90.745250254578,                   37P     77
43.9136835720078,25.0649018968108,-89.395250254578,                   37P     78
43.9136835720078,25.0649018968108,7.72326413314377D-15,               37P     79
3.14159265358979,0.,0.,0.;                                            37P     80
126,4,2,0,0,0,0,3.14159265358979,3.14159265358979,                    39P     81
3.14159265358979,4.71238898038469,4.71238898038469,                   39P     82
6.28318530717959,6.28318530717959,6.28318530717959,1.,                39P     83
0.70710678118653,1.,0.70710678118658,1.,-89.395250254578,             39P     84
43.9136835720078,25.0649018968108,-88.045250254578,                   39P     85
43.9136835720078,25.0649018968108,-88.045250254578,                   39P     86
42.7445492768988,24.3899018968108,-88.045250254578,                   39P     87
41.5754149817898,23.7149018968108,-89.395250254578,                   39P     88
41.5754149817898,23.7149018968109,3.14159265358979,                   39P     89
6.28318530717959,0.,0.,0.;                                            39P     90
128,1,1,1,1,0,0,1,0,0,-0.241,-0.241,0.241,0.241,-0.241,-0.241,        41P     91
0.241,0.241,1.,1.,1.,1.,-86.985250254578,33.0324280537785,            41P     92
36.3917893045237,-91.805250254578,33.0324280537785,                   41P     93
36.3917893045237,-86.985250254578,37.2066705000195,                   41P     94
38.8017893045236,-91.805250254578,37.2066705000196,                   41P     95
38.8017893045236,-0.241,0.241,-0.241,0.241;                           41P     96
128,1,8,1,2,0,1,0,0,1,-0.263157894736847,-0.263157894736847,          43P     97
1.38421052631579,1.38421052631579,-3.14159265358979,                  43P     98
-3.14159265358979,-3.14159265358979,-1.5707963267949,                 43P     99
-1.5707963267949,0.,0.,1.5707963267949,1.5707963267949,               43P    100
3.14159265358979,3.14159265358979,3.14159265358979,1.,1.,             43P    101
0.707106781186548,0.707106781186548,1.,1.,0.707106781186548,          43P    102
0.707106781186548,1.,1.,0.707106781186548,0.707106781186548,1.,       43P    103
1.,0.707106781186548,0.707106781186548,1.,1.,-91.795250254578,        43P    104
33.5545492768991,40.307448818369,-91.795250254578,                    43P    105
35.119549276899,37.5967893045237,-91.795250254578,                    43P    106
31.4760883078164,39.107448818369,-91.795250254578,                    43P    107
33.0410883078164,36.3967893045237,-89.395250254578,                   43P    108
31.4760883078164,39.107448818369,-89.395250254578,                    43P    109
33.0410883078164,36.3967893045237,-86.995250254578,                   43P    110
31.4760883078164,39.107448818369,-86.995250254578,                    43P    111
33.0410883078164,36.3967893045237,-86.995250254578,                   43P    112
33.5545492768991,40.307448818369,-86.995250254578,                    43P    113
35.119549276899,37.5967893045237,-86.995250254578,                    43P    114
35.6330102459818,41.507448818369,-86.995250254578,                    43P    115
37.1980102459817,38.7967893045236,-89.395250254578,                   43P    116
35.6330102459818,41.507448818369,-89.395250254578,                    43P    117
37.1980102459817,38.7967893045236,-91.795250254578,                   43P    118
35.6330102459818,41.507448818369,-91.795250254578,                    43P    119
37.1980102459817,38.7967893045236,-91.795250254578,                   43P    120
33.5545492768991,40.307448818369,-91.795250254578,                    43P    121
35.119549276899,37.5967893045237,-0.263157894736847,                  43P    122
1.38421052631579,-3.14159265358979,3.14159265358979;                  43P    123
128,1,1,1,1,0,0,1,0,0,-0.241000000000002,-0.241000000000002,          45P    124
0.241000000000001,0.241000000000001,-0.240999999999997,               45P    125
-0.240999999999997,0.241000000000006,0.241000000000006,1.,1.,1.,      45P    126
1.,-91.805250254578,35.6416705000196,41.512448818369,                 45P    127
-91.805250254578,31.4674280537786,39.102448818369,                    45P    128
-86.9852502545779,35.6416705000196,41.512448818369,                   45P    129
-86.985250254578,31.4674280537785,39.102448818369,                    45P    130
-0.241000000000002,0.241000000000001,-0.240999999999997,              45P    131
0.241000000000006;                                                    45P    132
128,1,8,1,2,0,1,0,0,1,-7.82592592592593,-7.82592592592593,            47P    133
3.47037037037037,3.47037037037037,-3.14159265358979,                  47P    134
-3.14159265358979,-3.14159265358979,-1.5707963267949,                 47P    135
-1.5707963267949,0.,0.,1.5707963267949,1.5707963267949,               47P    136
3.14159265358979,3.14159265358979,3.14159265358979,1.,1.,             47P    137
0.707106781186548,0.707106781186548,1.,1.,0.707106781186548,          47P    138
0.707106781186548,1.,1.,0.707106781186548,0.707106781186548,1.,       47P    139
1.,0.707106781186548,0.707106781186548,1.,1.,-89.395250254578,        47P    140
36.288683572008,38.2717893045236,-89.395250254578,                    47P    141
43.9136835720078,25.0649018968108,-90.745250254578,                   47P    142
36.288683572008,38.2717893045236,-90.745250254578,                    47P    143
43.9136835720078,25.0649018968108,-90.745250254578,                   47P    144
35.119549276899,37.5967893045237,-90.745250254578,                    47P    145
42.7445492768988,24.3899018968108,-90.745250254578,                   47P    146
33.95041498179,36.9217893045237,-90.745250254578,                     47P    147
41.5754149817898,23.7149018968108,-89.395250254578,                   47P    148
33.95041498179,36.9217893045237,-89.395250254578,                     47P    149
41.5754149817898,23.7149018968108,-88.045250254578,                   47P    150
33.95041498179,36.9217893045237,-88.045250254578,                     47P    151
41.5754149817898,23.7149018968108,-88.045250254578,                   47P    152
35.119549276899,37.5967893045237,-88.045250254578,                    47P    153
42.7445492768988,24.3899018968108,-88.045250254578,                   47P    154
36.288683572008,38.2717893045236,-88.045250254578,                    47P    155
43.9136835720078,25.0649018968108,-89.395250254578,                   47P    156
36.288683572008,38.2717893045236,-89.395250254578,                    47P    157
43.9136835720078,25.0649018968108,-7.82592592592593,                  47P    158
3.47037037037037,-3.14159265358979,3.14159265358979;                  47P    159
128,1,1,1,1,0,0,1,0,0,-0.136000000000001,-0.136000000000001,          49P    160
0.136000000000001,0.136000000000001,-0.136,-0.136,                    49P    161
0.136000000000002,0.136000000000002,1.,1.,1.,1.,                      49P    162
-90.755250254578,41.5667547277519,23.7099018968108,                   49P    163
-90.755250254578,43.9223438260456,25.0699018968108,                   49P    164
-88.035250254578,41.5667547277519,23.7099018968108,                   49P    165
-88.035250254578,43.9223438260456,25.0699018968108,                   49P    166
-0.136000000000001,0.136000000000001,-0.136,0.136000000000002;        49P    167
502,5,-91.795250254578,35.119549276899,37.5967893045237,              51P    168
-89.395250254578,36.288683572008,38.2717893045236,                    51P    169
-91.795250254578,33.5545492768991,40.307448818369,                    51P    170
-89.395250254578,43.9136835720078,25.0649018968108,                   51P    171
-89.395250254578,41.5754149817898,23.7149018968109;                   51P    172
504,7,27,51,1,51,1,29,51,2,51,2,31,51,3,51,3,33,51,3,51,1,35,51,      53P    173
2,51,4,37,51,5,51,4,39,51,4,51,5;                                     53P    174
406,1,5HBody1;                                                        55P    175
314,6.66666666666667,6.66666666666667,6.27450980392157,29HT-Glas      57P    176
e Clear (Polycarbonate);                                              57P    177
314,62.7450980392157,62.7450980392157,62.7450980392157,13HSteel       59P    178
- Satin;                                                              59P    179
S      1G      3D     60P    179                                        T      1
